<mxfile host="app.diagrams.net" modified="2024-06-11T12:58:48.104Z" agent="Mozilla/5.0 (Windows NT 10.0; Win64; x64; rv:126.0) Gecko/20100101 Firefox/126.0" etag="ux_wX07b4ArpZmSo15ui" version="24.4.15" type="device">
  <diagram name="Pagina-1" id="p5mm9y4Dymj6X3VoqaU7">
    <mxGraphModel dx="1434" dy="745" grid="1" gridSize="10" guides="1" tooltips="1" connect="1" arrows="1" fold="1" page="1" pageScale="1" pageWidth="827" pageHeight="1169" math="0" shadow="0">
      <root>
        <mxCell id="0" />
        <mxCell id="1" parent="0" />
        <mxCell id="ozPgkk8d3Fn301OAQnMU-1" value="Station" style="shape=table;startSize=30;container=1;collapsible=0;childLayout=tableLayout;" vertex="1" parent="1">
          <mxGeometry x="520" y="40" width="220" height="180" as="geometry" />
        </mxCell>
        <mxCell id="ozPgkk8d3Fn301OAQnMU-2" value="" style="shape=tableRow;horizontal=0;startSize=0;swimlaneHead=0;swimlaneBody=0;strokeColor=inherit;top=0;left=0;bottom=0;right=0;collapsible=0;dropTarget=0;fillColor=none;points=[[0,0.5],[1,0.5]];portConstraint=eastwest;" vertex="1" parent="ozPgkk8d3Fn301OAQnMU-1">
          <mxGeometry y="30" width="220" height="85" as="geometry" />
        </mxCell>
        <mxCell id="ozPgkk8d3Fn301OAQnMU-3" value="&lt;div align=&quot;left&quot;&gt;name : str&lt;/div&gt;&lt;div align=&quot;left&quot;&gt;location : tuple&lt;/div&gt;&lt;div align=&quot;left&quot;&gt;destinations : dict {dest : time}&lt;br&gt;&lt;/div&gt;" style="shape=partialRectangle;html=1;whiteSpace=wrap;connectable=0;strokeColor=inherit;overflow=hidden;fillColor=none;top=0;left=0;bottom=0;right=0;pointerEvents=1;align=left;" vertex="1" parent="ozPgkk8d3Fn301OAQnMU-2">
          <mxGeometry width="220" height="85" as="geometry">
            <mxRectangle width="220" height="85" as="alternateBounds" />
          </mxGeometry>
        </mxCell>
        <mxCell id="ozPgkk8d3Fn301OAQnMU-4" value="" style="shape=tableRow;horizontal=0;startSize=0;swimlaneHead=0;swimlaneBody=0;strokeColor=inherit;top=0;left=0;bottom=0;right=0;collapsible=0;dropTarget=0;fillColor=none;points=[[0,0.5],[1,0.5]];portConstraint=eastwest;" vertex="1" parent="ozPgkk8d3Fn301OAQnMU-1">
          <mxGeometry y="115" width="220" height="65" as="geometry" />
        </mxCell>
        <mxCell id="ozPgkk8d3Fn301OAQnMU-5" value="&lt;div align=&quot;left&quot;&gt;define_destinations(df) : &lt;br&gt;&lt;/div&gt;" style="shape=partialRectangle;html=1;whiteSpace=wrap;connectable=0;strokeColor=inherit;overflow=hidden;fillColor=none;top=0;left=0;bottom=0;right=0;pointerEvents=1;align=left;" vertex="1" parent="ozPgkk8d3Fn301OAQnMU-4">
          <mxGeometry width="220" height="65" as="geometry">
            <mxRectangle width="220" height="65" as="alternateBounds" />
          </mxGeometry>
        </mxCell>
        <mxCell id="ozPgkk8d3Fn301OAQnMU-6" value="Route" style="shape=table;startSize=30;container=1;collapsible=0;childLayout=tableLayout;" vertex="1" parent="1">
          <mxGeometry x="110" y="40" width="260" height="210" as="geometry" />
        </mxCell>
        <mxCell id="ozPgkk8d3Fn301OAQnMU-7" value="" style="shape=tableRow;horizontal=0;startSize=0;swimlaneHead=0;swimlaneBody=0;strokeColor=inherit;top=0;left=0;bottom=0;right=0;collapsible=0;dropTarget=0;fillColor=none;points=[[0,0.5],[1,0.5]];portConstraint=eastwest;" vertex="1" parent="ozPgkk8d3Fn301OAQnMU-6">
          <mxGeometry y="30" width="260" height="90" as="geometry" />
        </mxCell>
        <mxCell id="ozPgkk8d3Fn301OAQnMU-8" value="&lt;div align=&quot;left&quot;&gt;number : str&lt;/div&gt;&lt;div align=&quot;left&quot;&gt;station_dict : dict&lt;/div&gt;&lt;div align=&quot;left&quot;&gt;itinerary : list&lt;/div&gt;&lt;div align=&quot;left&quot;&gt;time : int&lt;br&gt;&lt;/div&gt;" style="shape=partialRectangle;html=1;whiteSpace=wrap;connectable=0;strokeColor=inherit;overflow=hidden;fillColor=none;top=0;left=0;bottom=0;right=0;pointerEvents=1;align=left;" vertex="1" parent="ozPgkk8d3Fn301OAQnMU-7">
          <mxGeometry width="260" height="90" as="geometry">
            <mxRectangle width="260" height="90" as="alternateBounds" />
          </mxGeometry>
        </mxCell>
        <mxCell id="ozPgkk8d3Fn301OAQnMU-9" value="" style="shape=tableRow;horizontal=0;startSize=0;swimlaneHead=0;swimlaneBody=0;strokeColor=inherit;top=0;left=0;bottom=0;right=0;collapsible=0;dropTarget=0;fillColor=none;points=[[0,0.5],[1,0.5]];portConstraint=eastwest;" vertex="1" parent="ozPgkk8d3Fn301OAQnMU-6">
          <mxGeometry y="120" width="260" height="90" as="geometry" />
        </mxCell>
        <mxCell id="ozPgkk8d3Fn301OAQnMU-10" value="&lt;div align=&quot;left&quot;&gt;present_destinations(station_name) : dict&lt;/div&gt;&lt;div align=&quot;left&quot;&gt;add_station(station, time) : &lt;br&gt; &lt;/div&gt;" style="shape=partialRectangle;html=1;whiteSpace=wrap;connectable=0;strokeColor=inherit;overflow=hidden;fillColor=none;top=0;left=0;bottom=0;right=0;pointerEvents=1;align=left;" vertex="1" parent="ozPgkk8d3Fn301OAQnMU-9">
          <mxGeometry width="260" height="90" as="geometry">
            <mxRectangle width="260" height="90" as="alternateBounds" />
          </mxGeometry>
        </mxCell>
        <mxCell id="ozPgkk8d3Fn301OAQnMU-11" value="Graph" style="shape=table;startSize=30;container=1;collapsible=0;childLayout=tableLayout;" vertex="1" parent="1">
          <mxGeometry x="320" y="300" width="270" height="260" as="geometry" />
        </mxCell>
        <mxCell id="ozPgkk8d3Fn301OAQnMU-12" value="" style="shape=tableRow;horizontal=0;startSize=0;swimlaneHead=0;swimlaneBody=0;strokeColor=inherit;top=0;left=0;bottom=0;right=0;collapsible=0;dropTarget=0;fillColor=none;points=[[0,0.5],[1,0.5]];portConstraint=eastwest;" vertex="1" parent="ozPgkk8d3Fn301OAQnMU-11">
          <mxGeometry y="30" width="270" height="115" as="geometry" />
        </mxCell>
        <mxCell id="ozPgkk8d3Fn301OAQnMU-13" value="&lt;div align=&quot;left&quot;&gt;route_dict : dict&lt;/div&gt;&lt;div align=&quot;left&quot;&gt;dict : dict&lt;/div&gt;&lt;div align=&quot;left&quot;&gt;df : Dataframe&lt;/div&gt;&lt;div align=&quot;left&quot;&gt;station_dict : dict&lt;br&gt;&lt;/div&gt;" style="shape=partialRectangle;html=1;whiteSpace=wrap;connectable=0;strokeColor=inherit;overflow=hidden;fillColor=none;top=0;left=0;bottom=0;right=0;pointerEvents=1;align=left;" vertex="1" parent="ozPgkk8d3Fn301OAQnMU-12">
          <mxGeometry width="270" height="115" as="geometry">
            <mxRectangle width="270" height="115" as="alternateBounds" />
          </mxGeometry>
        </mxCell>
        <mxCell id="ozPgkk8d3Fn301OAQnMU-14" value="" style="shape=tableRow;horizontal=0;startSize=0;swimlaneHead=0;swimlaneBody=0;strokeColor=inherit;top=0;left=0;bottom=0;right=0;collapsible=0;dropTarget=0;fillColor=none;points=[[0,0.5],[1,0.5]];portConstraint=eastwest;" vertex="1" parent="ozPgkk8d3Fn301OAQnMU-11">
          <mxGeometry y="145" width="270" height="115" as="geometry" />
        </mxCell>
        <mxCell id="ozPgkk8d3Fn301OAQnMU-15" value="&lt;div align=&quot;left&quot;&gt;read_input_1(input1) : &lt;br&gt;&lt;/div&gt;&lt;div align=&quot;left&quot;&gt;read_input_2(input2) :&lt;/div&gt;&lt;div align=&quot;left&quot;&gt;create_station_dict() :&lt;/div&gt;&lt;div align=&quot;left&quot;&gt;add_route() :&lt;br&gt;&lt;/div&gt;" style="shape=partialRectangle;html=1;whiteSpace=wrap;connectable=0;strokeColor=inherit;overflow=hidden;fillColor=none;top=0;left=0;bottom=0;right=0;pointerEvents=1;align=left;" vertex="1" parent="ozPgkk8d3Fn301OAQnMU-14">
          <mxGeometry width="270" height="115" as="geometry">
            <mxRectangle width="270" height="115" as="alternateBounds" />
          </mxGeometry>
        </mxCell>
        <mxCell id="ozPgkk8d3Fn301OAQnMU-18" value="" style="edgeStyle=none;orthogonalLoop=1;jettySize=auto;html=1;rounded=0;exitX=0.269;exitY=1;exitDx=0;exitDy=0;exitPerimeter=0;" edge="1" parent="1">
          <mxGeometry width="100" relative="1" as="geometry">
            <mxPoint x="183.99000000000007" y="250" as="sourcePoint" />
            <mxPoint x="320" y="440" as="targetPoint" />
            <Array as="points">
              <mxPoint x="184.05" y="440" />
            </Array>
          </mxGeometry>
        </mxCell>
        <mxCell id="ozPgkk8d3Fn301OAQnMU-19" value="" style="edgeStyle=none;orthogonalLoop=1;jettySize=auto;html=1;rounded=0;entryX=1;entryY=0.5;entryDx=0;entryDy=0;exitX=0.545;exitY=1.046;exitDx=0;exitDy=0;exitPerimeter=0;" edge="1" parent="1" source="ozPgkk8d3Fn301OAQnMU-4" target="ozPgkk8d3Fn301OAQnMU-11">
          <mxGeometry width="100" relative="1" as="geometry">
            <mxPoint x="590" y="300" as="sourcePoint" />
            <mxPoint x="690" y="300" as="targetPoint" />
            <Array as="points">
              <mxPoint x="640" y="430" />
            </Array>
          </mxGeometry>
        </mxCell>
      </root>
    </mxGraphModel>
  </diagram>
</mxfile>
